<svg width="46" height="42" viewBox="0 0 46 42" fill="none" xmlns="http://www.w3.org/2000/svg">
<path d="M13.9698 41.6667C12.7207 41.6667 11.6518 41.259 10.7631 40.4438C9.87289 39.6271 9.42778 38.6458 9.42778 37.5C9.42778 36.3542 9.87289 35.3729 10.7631 34.5563C11.6518 33.741 12.7207 33.3333 13.9698 33.3333C15.2188 33.3333 16.2877 33.741 17.1765 34.5563C18.0667 35.3729 18.5118 36.3542 18.5118 37.5C18.5118 38.6458 18.0667 39.6271 17.1765 40.4438C16.2877 41.259 15.2188 41.6667 13.9698 41.6667ZM36.6799 41.6667C35.4308 41.6667 34.3619 41.259 33.4732 40.4438C32.583 39.6271 32.1378 38.6458 32.1378 37.5C32.1378 36.3542 32.583 35.3729 33.4732 34.5563C34.3619 33.741 35.4308 33.3333 36.6799 33.3333C37.9289 33.3333 38.9986 33.741 39.8888 34.5563C40.7775 35.3729 41.2219 36.3542 41.2219 37.5C41.2219 38.6458 40.7775 39.6271 39.8888 40.4438C38.9986 41.259 37.9289 41.6667 36.6799 41.6667ZM12.0394 8.33333L17.4899 18.75H33.3869L39.6322 8.33333H12.0394ZM9.88198 4.16667H43.3793C44.2499 4.16667 44.9123 4.52222 45.3665 5.23333C45.8207 5.94583 45.8396 6.66667 45.4232 7.39583L37.3612 20.7292C36.9448 21.4236 36.3861 21.9618 35.6852 22.3438C34.9857 22.7257 34.2196 22.9167 33.3869 22.9167H16.4679L13.9698 27.0833H41.2219V31.25H13.9698C12.2665 31.25 10.9796 30.5639 10.1091 29.1917C9.23853 27.8208 9.20068 26.4583 9.99553 25.1042L13.0614 20L4.88576 4.16667H0.34375V0H7.72452L9.88198 4.16667Z" fill="white"/>
</svg>
