<svg width="53" height="48" viewBox="0 0 53 48" fill="none" xmlns="http://www.w3.org/2000/svg">
<path d="M49.3098 28.5937L43.7299 9.37499C43.5992 8.90969 43.3095 8.495 42.9033 8.19163C42.4971 7.88827 41.9957 7.71217 41.4725 7.68912C40.9493 7.66606 40.4318 7.79726 39.9958 8.06351C39.5598 8.32976 39.2281 8.71707 39.0494 9.16874L34.8389 19.5H18.6921L14.4816 9.16874C14.3029 8.71707 13.9712 8.32976 13.5352 8.06351C13.0992 7.79726 12.5817 7.66606 12.0585 7.68912C11.5353 7.71217 11.0339 7.88827 10.6277 8.19163C10.2215 8.495 9.9318 8.90969 9.80107 9.37499L4.22121 28.5937C4.05069 29.1922 4.08471 29.8243 4.31868 30.4045C4.55264 30.9847 4.97525 31.4849 5.52931 31.8375L24.9055 44.1375C25.336 44.414 25.8347 44.588 26.3567 44.6437H27.1743C27.6963 44.588 28.195 44.414 28.6255 44.1375L48.0017 31.8375C48.5557 31.4849 48.9783 30.9847 49.2123 30.4045C49.4463 29.8243 49.4803 29.1922 49.3098 28.5937ZM7.38927 29.3625L9.37185 22.5H16.4438L23.393 39.5437L7.38927 29.3625ZM30.1379 39.5437L37.0872 22.5H44.1591L46.1417 29.3625L30.1379 39.5437Z" fill="white"/>
</svg>
