<svg width="73" height="53" viewBox="0 0 73 53" fill="none" xmlns="http://www.w3.org/2000/svg">
<path id="Vector" d="M18.4453 52.0722C13.5053 52.0722 9.29115 50.3714 5.80281 46.9697C2.31448 43.5464 0.570312 39.3756 0.570312 34.4572C0.570312 30.2322 1.83781 26.4622 4.37281 23.1472C6.92948 19.8322 10.2661 17.7197 14.3828 16.8097C15.7478 11.8264 18.4561 7.7964 22.5078 4.71973C26.5811 1.6214 31.1853 0.0722351 36.3203 0.0722351C42.6686 0.0722351 48.042 2.28223 52.4403 6.70223C56.8603 11.1006 59.0703 16.4739 59.0703 22.8222C62.8186 23.2556 65.917 24.8806 68.3653 27.6972C70.8353 30.4706 72.0703 33.7206 72.0703 37.4472C72.0703 41.5206 70.6511 44.9764 67.8128 47.8147C64.9745 50.6531 61.5186 52.0722 57.4453 52.0722H39.5703C37.7936 52.0722 36.2661 51.4331 34.9878 50.1547C33.7095 48.8981 33.0703 47.3706 33.0703 45.5722V28.8347L27.8703 33.8722L23.3203 29.3222L36.3203 16.3222L49.3203 29.3222L44.7703 33.8722L39.5703 28.8347V45.5722H57.4453C59.7203 45.5722 61.6378 44.7814 63.1978 43.1997C64.7795 41.6397 65.5703 39.7222 65.5703 37.4472C65.5703 35.1722 64.7795 33.2547 63.1978 31.6947C61.6378 30.1131 59.7203 29.3222 57.4453 29.3222H52.5703V22.8222C52.5703 18.3372 50.9886 14.5022 47.8253 11.3172C44.662 8.1539 40.827 6.57223 36.3203 6.57223C31.8353 6.57223 28.0003 8.1539 24.8153 11.3172C21.652 14.5022 20.0703 18.3372 20.0703 22.8222H18.4453C15.3036 22.8222 12.6278 23.9381 10.4178 26.1697C8.18615 28.3797 7.07031 31.0556 7.07031 34.1972C7.07031 37.3389 8.18615 40.0472 10.4178 42.3222C12.6278 44.4889 15.3036 45.5722 18.4453 45.5722H26.5703V52.0722" fill="#D45252"/>
</svg>
