<svg width="72" height="52" viewBox="0 0 72 52" fill="none" xmlns="http://www.w3.org/2000/svg">
<path d="M17.875 52C12.935 52 8.72083 50.2992 5.2325 46.8975C1.74417 43.4742 0 39.3033 0 34.385C0 30.16 1.2675 26.39 3.8025 23.075C6.35917 19.76 9.69583 17.6475 13.8125 16.7375C15.1775 11.7542 17.8858 7.72417 21.9375 4.6475C26.0108 1.54917 30.615 0 35.75 0C42.0983 0 47.4717 2.21 51.87 6.63C56.29 11.0283 58.5 16.4017 58.5 22.75C62.2483 23.1833 65.3467 24.8083 67.795 27.625C70.265 30.3983 71.5 33.6483 71.5 37.375C71.5 41.4483 70.0808 44.9042 67.2425 47.7425C64.4042 50.5808 60.9483 52 56.875 52H39C37.2233 52 35.6958 51.3608 34.4175 50.0825C33.1392 48.8258 32.5 47.2983 32.5 45.5V28.7625L27.3 33.8L22.75 29.25L35.75 16.25L48.75 29.25L44.2 33.8L39 28.7625V45.5H56.875C59.15 45.5 61.0675 44.7092 62.6275 43.1275C64.2092 41.5675 65 39.65 65 37.375C65 35.1 64.2092 33.1825 62.6275 31.6225C61.0675 30.0408 59.15 29.25 56.875 29.25H52V22.75C52 18.265 50.4183 14.43 47.255 11.245C44.0917 8.08167 40.2567 6.5 35.75 6.5C31.265 6.5 27.43 8.08167 24.245 11.245C21.0817 14.43 19.5 18.265 19.5 22.75H17.875C14.7333 22.75 12.0575 23.8658 9.8475 26.0975C7.61583 28.3075 6.5 30.9833 6.5 34.125C6.5 37.2667 7.61583 39.975 9.8475 42.25C12.0575 44.4167 14.7333 45.5 17.875 45.5H26V52" fill="white"/>
</svg>
